<svg width="94" height="94" viewBox="0 0 94 94" fill="none" xmlns="http://www.w3.org/2000/svg">
<g style="mix-blend-mode:multiply" filter="url(#filter0_f_135_457)">
<circle cx="47" cy="47" r="19" fill="black" fill-opacity="0.75"/>
</g>
<circle cx="47" cy="34" r="24" fill="#3E3257"/>
<path fill-rule="evenodd" clip-rule="evenodd" d="M47.5 22C47.9144 22 48.3118 22.1646 48.6049 22.4576C48.8979 22.7507 49.0625 23.1481 49.0625 23.5625V25.125C49.0625 25.5394 48.8979 25.9368 48.6049 26.2299C48.3118 26.5229 47.9144 26.6875 47.5 26.6875C47.0856 26.6875 46.6882 26.5229 46.3951 26.2299C46.1021 25.9368 45.9375 25.5394 45.9375 25.125V23.5625C45.9375 23.1481 46.1021 22.7507 46.3951 22.4576C46.6882 22.1646 47.0856 22 47.5 22ZM53.75 34.5C53.75 36.1576 53.0915 37.7473 51.9194 38.9194C50.7473 40.0915 49.1576 40.75 47.5 40.75C45.8424 40.75 44.2527 40.0915 43.0806 38.9194C41.9085 37.7473 41.25 36.1576 41.25 34.5C41.25 32.8424 41.9085 31.2527 43.0806 30.0806C44.2527 28.9085 45.8424 28.25 47.5 28.25C49.1576 28.25 50.7473 28.9085 51.9194 30.0806C53.0915 31.2527 53.75 32.8424 53.75 34.5ZM53.025 42.2344L54.1297 43.3391C54.4244 43.6237 54.8191 43.7812 55.2288 43.7776C55.6384 43.7741 56.0303 43.6097 56.32 43.32C56.6097 43.0303 56.7741 42.6384 56.7776 42.2288C56.7812 41.8191 56.6237 41.4244 56.3391 41.1297L55.2344 40.025C54.9397 39.7404 54.545 39.5829 54.1353 39.5864C53.7256 39.59 53.3337 39.7543 53.044 40.044C52.7543 40.3337 52.59 40.7256 52.5864 41.1353C52.5829 41.545 52.7404 41.9397 53.025 42.2344ZM56.3375 25.6609C56.6304 25.9539 56.795 26.3513 56.795 26.7656C56.795 27.1799 56.6304 27.5773 56.3375 27.8703L55.2344 28.975C55.0902 29.1242 54.9178 29.2433 54.7272 29.3252C54.5366 29.407 54.3315 29.4502 54.1241 29.452C53.9166 29.4538 53.7108 29.4142 53.5188 29.3357C53.3268 29.2571 53.1523 29.1411 53.0056 28.9944C52.8589 28.8477 52.7429 28.6732 52.6643 28.4812C52.5858 28.2892 52.5462 28.0834 52.548 27.8759C52.5498 27.6685 52.593 27.4634 52.6748 27.2728C52.7567 27.0822 52.8758 26.9098 53.025 26.7656L54.1297 25.6609C54.4227 25.368 54.8201 25.2035 55.2344 25.2035C55.6487 25.2035 56.0445 25.368 56.3375 25.6609ZM58.4375 36.0625C58.8519 36.0625 59.2493 35.8979 59.5424 35.6049C59.8354 35.3118 60 34.9144 60 34.5C60 34.0856 59.8354 33.6882 59.5424 33.3951C59.2493 33.1021 58.8519 32.9375 58.4375 32.9375H56.875C56.4606 32.9375 56.0632 33.1021 55.7701 33.3951C55.4771 33.6882 55.3125 34.0856 55.3125 34.5C55.3125 34.9144 55.4771 35.3118 55.7701 35.6049C56.0632 35.8979 56.4606 36.0625 56.875 36.0625H58.4375ZM47.5 42.3125C47.9144 42.3125 48.3118 42.4771 48.6049 42.7701C48.8979 43.0632 49.0625 43.4606 49.0625 43.875V45.4375C49.0625 45.8519 48.8979 46.2493 48.6049 46.5424C48.3118 46.8354 47.9144 47 47.5 47C47.0856 47 46.6882 46.8354 46.3951 46.5424C46.1021 46.2493 45.9375 45.8519 45.9375 45.4375V43.875C45.9375 43.4606 46.1021 43.0632 46.3951 42.7701C46.6882 42.4771 47.0856 42.3125 47.5 42.3125ZM39.7656 28.975C39.9107 29.1202 40.0829 29.2353 40.2725 29.314C40.4621 29.3926 40.6653 29.4331 40.8705 29.4331C41.0758 29.4332 41.279 29.3928 41.4686 29.3144C41.6583 29.2359 41.8306 29.1209 41.9758 28.9758C42.121 28.8307 42.2361 28.6585 42.3147 28.4689C42.3933 28.2793 42.4338 28.0761 42.4339 27.8709C42.434 27.6656 42.3936 27.4624 42.3152 27.2728C42.2367 27.0831 42.1216 26.9108 41.9766 26.7656L40.8703 25.6609C40.5756 25.3763 40.1809 25.2188 39.7712 25.2224C39.3616 25.2259 38.9697 25.3903 38.68 25.68C38.3903 25.9697 38.2259 26.3616 38.2224 26.7712C38.2188 27.1809 38.3763 27.5756 38.6609 27.8703L39.7656 28.975ZM41.975 42.2344L40.8703 43.3391C40.5756 43.6237 40.1809 43.7812 39.7712 43.7776C39.3616 43.7741 38.9697 43.6097 38.68 43.32C38.3903 43.0303 38.2259 42.6384 38.2224 42.2288C38.2188 41.8191 38.3763 41.4244 38.6609 41.1297L39.7656 40.025C40.0603 39.7404 40.455 39.5829 40.8647 39.5864C41.2744 39.59 41.6663 39.7543 41.956 40.044C42.2457 40.3337 42.41 40.7256 42.4136 41.1353C42.4171 41.545 42.2596 41.9397 41.975 42.2344ZM38.125 36.0625C38.5394 36.0625 38.9368 35.8979 39.2299 35.6049C39.5229 35.3118 39.6875 34.9144 39.6875 34.5C39.6875 34.0856 39.5229 33.6882 39.2299 33.3951C38.9368 33.1021 38.5394 32.9375 38.125 32.9375H36.5625C36.1481 32.9375 35.7507 33.1021 35.4576 33.3951C35.1646 33.6882 35 34.0856 35 34.5C35 34.9144 35.1646 35.3118 35.4576 35.6049C35.7507 35.8979 36.1481 36.0625 36.5625 36.0625H38.125Z" fill="#FCFCFC" fill-opacity="0.77"/>
<defs>
<filter id="filter0_f_135_457" x="0.817183" y="0.817183" width="92.3656" height="92.3656" filterUnits="userSpaceOnUse" color-interpolation-filters="sRGB">
<feFlood flood-opacity="0" result="BackgroundImageFix"/>
<feBlend mode="normal" in="SourceGraphic" in2="BackgroundImageFix" result="shape"/>
<feGaussianBlur stdDeviation="13.5914" result="effect1_foregroundBlur_135_457"/>
</filter>
</defs>
</svg>
